<?xml version="1.0" encoding="utf-8"?>
<!-- Generator: Adobe Illustrator 19.0.0, SVG Export Plug-In . SVG Version: 6.00 Build 0)  -->
<svg version="1.1" id="Layer_1" xmlns="http://www.w3.org/2000/svg" xmlns:xlink="http://www.w3.org/1999/xlink" x="0px" y="0px"
	 viewBox="-468.9 271 19.8 19.9" style="enable-background:new -468.9 271 19.8 19.9;" xml:space="preserve">
<style type="text/css">
	.st0{fill:#FFFFFF;}
</style>
<title>cog</title>
<path class="st0" d="M-451,281c0-1.2,0.8-2.2,1.9-2.9c-0.2-0.7-0.5-1.4-0.8-2c-1.3,0.3-2.3-0.2-3.2-1.1c-0.9-0.9-1.2-1.9-0.8-3.2
	c-0.6-0.3-1.3-0.6-2-0.8c-0.7,1.2-1.9,1.9-3.1,1.9s-2.5-0.8-3.1-1.9c-0.7,0.2-1.4,0.5-2,0.8c0.3,1.3,0.1,2.3-0.8,3.2
	c-0.9,0.9-1.9,1.4-3.2,1.1c-0.3,0.6-0.6,1.3-0.8,2c1.2,0.7,1.9,1.7,1.9,2.9s-0.8,2.5-1.9,3.1c0.2,0.7,0.5,1.4,0.8,2
	c1.3-0.3,2.3-0.1,3.2,0.8c0.9,0.9,1.2,1.9,0.8,3.2c0.6,0.3,1.3,0.6,2,0.8c0.7-1.2,1.9-1.9,3.1-1.9s2.5,0.8,3.1,1.9
	c0.7-0.2,1.4-0.5,2-0.8c-0.3-1.3-0.1-2.3,0.8-3.2c0.9-0.9,1.9-1.4,3.2-1.1c0.3-0.6,0.6-1.3,0.8-2C-450.3,283.3-451,282.3-451,281z
	 M-459.1,285.3c-2.4,0-4.3-1.9-4.3-4.3c0-2.4,1.9-4.3,4.3-4.3s4.3,1.9,4.3,4.3C-454.8,283.4-456.7,285.3-459.1,285.3z"/>
</svg>
