<?xml version="1.0" encoding="utf-8"?>
<!-- Generator: Adobe Illustrator 19.0.0, SVG Export Plug-In . SVG Version: 6.00 Build 0)  -->
<svg version="1.1" id="Layer_1" xmlns="http://www.w3.org/2000/svg" xmlns:xlink="http://www.w3.org/1999/xlink" x="0px" y="0px"
	 viewBox="-467.8 272.2 17.6 17.6" style="enable-background:new -467.8 272.2 17.6 17.6;" xml:space="preserve">
<style type="text/css">
	.st0{fill:#FFFFFF;}
</style>
<title>edit</title>
<path class="st0" d="M-451.4,273.4c-1.4-1.4-2.5-1.2-2.5-1.2l-12.8,12.8l-1,4.8l4.8-1l12.8-12.8C-450.2,276-450,274.9-451.4,273.4z
	 M-463.3,288.2l-1.6,0.3c-0.2-0.3-0.3-0.6-0.7-0.9c-0.3-0.3-0.6-0.5-0.9-0.7l0.3-1.6l0.5-0.5c0,0,0.9,0,1.9,1c1,1,1,1.9,1,1.9
	S-463.3,288.2-463.3,288.2z"/>
</svg>
