<?xml version="1.0" encoding="utf-8"?>
<!-- Generator: Adobe Illustrator 19.0.0, SVG Export Plug-In . SVG Version: 6.00 Build 0)  -->
<svg version="1.1" id="Layer_1" xmlns="http://www.w3.org/2000/svg" xmlns:xlink="http://www.w3.org/1999/xlink" x="0px" y="0px"
	 viewBox="-466 275 14 12" style="enable-background:new -466 275 14 12;" xml:space="preserve">
<style type="text/css">
	.st0{fill:#FFFFFF;}
</style>
<title>list</title>
<path class="st0" d="M-454.6,280h-5.8c-0.6,0-0.6,0.4-0.6,1s0,1,0.6,1h5.8c0.6,0,0.6-0.4,0.6-1S-454,280-454.6,280z M-452.6,285
	h-7.8c-0.6,0-0.6,0.4-0.6,1s0,1,0.6,1h7.8c0.6,0,0.6-0.4,0.6-1S-452,285-452.6,285z M-460.4,277h7.8c0.6,0,0.6-0.4,0.6-1s0-1-0.6-1
	h-7.8c-0.6,0-0.6,0.4-0.6,1S-461,277-460.4,277z M-463.6,280h-1.8c-0.6,0-0.6,0.4-0.6,1s0,1,0.6,1h1.8c0.6,0,0.6-0.4,0.6-1
	S-463,280-463.6,280z M-463.6,285h-1.8c-0.6,0-0.6,0.4-0.6,1s0,1,0.6,1h1.8c0.6,0,0.6-0.4,0.6-1S-463,285-463.6,285z M-463.6,275
	h-1.8c-0.6,0-0.6,0.4-0.6,1s0,1,0.6,1h1.8c0.6,0,0.6-0.4,0.6-1S-463,275-463.6,275z"/>
</svg>
