<?xml version="1.0" encoding="utf-8"?>
<!-- Generator: Adobe Illustrator 19.0.0, SVG Export Plug-In . SVG Version: 6.00 Build 0)  -->
<svg version="1.1" id="Layer_2" xmlns="http://www.w3.org/2000/svg" xmlns:xlink="http://www.w3.org/1999/xlink" x="0px" y="0px"
	 viewBox="0 0 287.4 189.6" style="enable-background:new 0 0 287.4 189.6;" xml:space="preserve">
<style type="text/css">
	.st0{fill:#FFFFFF;}
</style>
<g id="XMLID_1_">
	<path id="XMLID_9_" class="st0" d="M238.1,89.6c4-0.1,7.6-3.2,7.9-7.4c0-0.1,0-0.1,0-0.2c0.3-5.4-12-26.8-30-29.3
		c-25.3-3.5-57.7-16.3-57.7-16.3s-0.9,0.8-2.3,2.4c-4.7-2.3-38.3-18.5-61.9-25C68.6,6.7,5.6-2.8,2.6,0.7C0.9,2.7,0.3,7.3,0,11.1
		c-0.2,3.1,2,5.9,5.2,6.3c15,2,57.4,4.8,91.7,17.3c8.5,3.1,46.4,23.6,48.4,24.7c-0.3,1.3-0.5,2.5-0.6,3.9L160,72
		c0,0-6.6,7.4-10,12.3c-6.9,10-9,17.7-9.1,23.7c0,0.2-0.6,0.4-0.6,0.7c0,0.5-0.6,1.1-0.6,1.6c0,0,0,0,0,0c0,0.4,0.7,0.7,0.7,1.1
		c0,0.2,0.4,0.3,0.4,0.4c0.3,2.1,1,4.3,2,6.7c0,0,21.6,58.3,30.5,68c8.9,9.6,66.2-4.6,73.3-20.8l4.6,6.1c2.6,3.5,7.4,4.3,11,2
		c8.5-5.3,22.5-14.7,24.9-19.8C290.6,146.9,242.9,104.2,238.1,89.6z M225.3,158.7c-1.9,6.2-32.4,17.2-39.1,10.5
		c-6.7-6.7-18-46.4-18-46.4c-2.5-8.5,29.2-11.3,34.3-7.5C207.7,119,227.2,152.5,225.3,158.7z"/>
</g>
</svg>
