<?xml version="1.0" encoding="utf-8"?>
<!-- Generator: Adobe Illustrator 19.0.0, SVG Export Plug-In . SVG Version: 6.00 Build 0)  -->
<svg version="1.1" id="Layer_1" xmlns="http://www.w3.org/2000/svg" xmlns:xlink="http://www.w3.org/1999/xlink" x="0px" y="0px"
	 viewBox="-469 271 20 20" style="enable-background:new -469 271 20 20;" xml:space="preserve">
<style type="text/css">
	.st0{fill:#727272;}
</style>
<title>trash</title>
<path class="st0" d="M-465.6,278.1l1.1,10.9c0.1,0.5,2.3,2,5.5,2c3.2,0,5.5-1.5,5.5-2l1.1-10.9c-1.7,0.9-4.2,1.4-6.6,1.4
	C-461.4,279.5-463.9,279.1-465.6,278.1z M-455.8,272.5l-0.9-1c-0.3-0.5-0.7-0.6-1.4-0.6h-1.8c-0.7,0-1.1,0.1-1.4,0.6l-0.9,1
	c-2.6,0.4-4.4,1.6-4.4,2.5v0.2c0,1.5,3.4,2.8,7.6,2.8c4.2,0,7.6-1.3,7.6-2.8V275C-451.4,274.1-453.3,273-455.8,272.5z M-456.9,275.3
	l-1.1-1.3h-2l-1.1,1.3h-1.7c0,0,1.9-2.2,2.1-2.5c0.2-0.2,0.4-0.3,0.6-0.3h2c0.3,0,0.4,0.1,0.6,0.3c0.2,0.3,2.1,2.5,2.1,2.5
	S-456.9,275.3-456.9,275.3z"/>
</svg>
